<svg xmlns="http://www.w3.org/2000/svg" viewBox="0 0 700 250" role="img" aria-label="Attention allocated unevenly across modules: a few critical regions receive most of it">
  <rect x="90" y="40" width="34" height="150" fill="#6b5d45"/><rect x="134" y="72" width="34" height="118" fill="#6b5d45"/><rect x="178" y="132" width="34" height="58" fill="#c9c1b0"/><rect x="222" y="150" width="34" height="40" fill="#c9c1b0"/><rect x="266" y="160" width="34" height="30" fill="#c9c1b0"/><rect x="310" y="166" width="34" height="24" fill="#c9c1b0"/><rect x="354" y="170" width="34" height="20" fill="#c9c1b0"/><rect x="398" y="174" width="34" height="16" fill="#c9c1b0"/><rect x="442" y="177" width="34" height="13" fill="#c9c1b0"/><rect x="486" y="179" width="34" height="11" fill="#c9c1b0"/><rect x="530" y="181" width="34" height="9" fill="#c9c1b0"/><rect x="574" y="182" width="34" height="8" fill="#c9c1b0"/>
  <g stroke="#2b2b2b" stroke-width="2">
    <line x1="80" y1="190" x2="640" y2="190"/>
    <line x1="80" y1="190" x2="80" y2="30"/>
  </g>
  <text x="360" y="225" font-size="16" fill="#2b2b2b" text-anchor="middle">modules</text>
  <text x="46" y="110" font-size="16" fill="#2b2b2b" text-anchor="middle" transform="rotate(-90 46 110)">attention</text>
</svg>