<svg xmlns="http://www.w3.org/2000/svg" viewBox="0 0 760 380" role="img" aria-label="The manual development loop">
  <defs>
    <marker id="a" viewBox="0 0 10 10" refX="8.5" refY="5" markerWidth="6.5" markerHeight="6.5" orient="auto-start-reverse">
      <path d="M0,0 L10,5 L0,10 z" fill="#26231D"/>
    </marker>
  </defs>
  <style>
    .b { fill:none; stroke:#26231D; stroke-width:1.4; }
    .w { fill:none; stroke:#26231D; stroke-width:1.3; }
    text { font-family:'EB Garamond', Garamond, Georgia, serif; fill:#26231D; font-size:19px; }
    .l { font-size:16.5px; font-style:italic; fill:#4A453A; }
  </style>

  <rect class="b" x="110" y="52" width="190" height="46"/>
  <text x="205" y="81" text-anchor="middle">Comprehension</text>

  <rect class="b" x="470" y="52" width="150" height="46"/>
  <text x="545" y="81" text-anchor="middle">Friction</text>

  <path class="w" d="M470,75 L304,75" marker-end="url(#a)"/>
  <text class="l" x="387" y="66" text-anchor="middle">ŷ</text>

  <rect class="b" x="110" y="262" width="190" height="46"/>
  <text x="205" y="291" text-anchor="middle">Judgement</text>

  <path class="w" d="M205,98 L205,258" marker-end="url(#a)"/>
  <text class="l" x="216" y="185">rated mental model</text>

  <path class="w" d="M20,285 L106,285" marker-end="url(#a)"/>
  <text class="l" x="22" y="272">feature request</text>

  <rect class="b" x="470" y="262" width="150" height="46"/>
  <text x="545" y="291" text-anchor="middle">Manual coding</text>

  <path class="w" d="M300,285 L466,285" marker-end="url(#a)"/>
  <text class="l" x="383" y="276" text-anchor="middle">intent</text>

  <path class="w" d="M545,262 L545,102" marker-end="url(#a)"/>
  <text class="l" x="556" y="185">errors</text>

  <path class="w" d="M620,285 L716,285" marker-end="url(#a)"/>
  <text x="726" y="291" font-style="italic">code</text>
</svg>
